<?xml version="1.0" encoding="UTF-8" standalone="no"?>
<!DOCTYPE svg PUBLIC "-//W3C//DTD SVG 1.1//EN"
 "http://www.w3.org/Graphics/SVG/1.1/DTD/svg11.dtd">
<!-- Generated by graphviz version 2.43.0 (0)
 -->
<!-- Title: org&#45;roam Pages: 1 -->
<svg width="304pt" height="188pt"
 viewBox="0.00 0.00 304.00 188.00" xmlns="http://www.w3.org/2000/svg" xmlns:xlink="http://www.w3.org/1999/xlink">
<g id="graph0" class="graph" transform="scale(1 1) rotate(0) translate(4 184)">
<title>org&#45;roam</title>
<polygon fill="white" stroke="transparent" points="-4,4 -4,-184 300,-184 300,4 -4,4"/>
<!-- /home/andrea/workspace/agenda/notes/20200221154308_paul_graham.org -->
<g id="node1" class="node">
<title>/home/andrea/workspace/agenda/notes/20200221154308_paul_graham.org</title>
<g id="a_node1"><a xlink:href="org-protocol://roam-file?file=%2Fhome%2Fandrea%2Fworkspace%2Fagenda%2Fnotes%2F20200221154308_paul_graham.org" xlink:title="Paul Graham">
<polygon fill="#eeeeee" stroke="transparent" points="130.5,-36 41.5,-36 41.5,0 130.5,0 130.5,-36"/>
<polyline fill="none" stroke="#c9c9c9" points="41.5,0 130.5,0 "/>
<text text-anchor="middle" x="86" y="-14.3" font-family="Times,serif" font-size="14.00" fill="#111111">Paul Graham</text>
</a>
</g>
</g>
<!-- /home/andrea/workspace/agenda/notes/20200221154553_lisp.org -->
<g id="node2" class="node">
<title>/home/andrea/workspace/agenda/notes/20200221154553_lisp.org</title>
<g id="a_node2"><a xlink:href="org-protocol://roam-file?file=%2Fhome%2Fandrea%2Fworkspace%2Fagenda%2Fnotes%2F20200221154553_lisp.org" xlink:title="lisp">
<polygon fill="#eeeeee" stroke="transparent" points="54,-180 0,-180 0,-144 54,-144 54,-180"/>
<polyline fill="none" stroke="#c9c9c9" points="0,-144 54,-144 "/>
<text text-anchor="middle" x="27" y="-158.3" font-family="Times,serif" font-size="14.00" fill="#111111">lisp</text>
</a>
</g>
</g>
<!-- /home/andrea/workspace/agenda/notes/20200221154553_lisp.org&#45;&gt;/home/andrea/workspace/agenda/notes/20200221154308_paul_graham.org -->
<g id="edge2" class="edge">
<title>/home/andrea/workspace/agenda/notes/20200221154553_lisp.org&#45;&gt;/home/andrea/workspace/agenda/notes/20200221154308_paul_graham.org</title>
<path fill="none" stroke="#333333" d="M34.12,-143.87C44.26,-119.46 62.97,-74.43 74.93,-45.64"/>
<polygon fill="#333333" stroke="#333333" points="78.25,-46.77 78.86,-36.19 71.79,-44.08 78.25,-46.77"/>
</g>
<!-- /home/andrea/workspace/agenda/notes/20200221154655_on_lisp.org -->
<g id="node3" class="node">
<title>/home/andrea/workspace/agenda/notes/20200221154655_on_lisp.org</title>
<g id="a_node3"><a xlink:href="org-protocol://roam-file?file=%2Fhome%2Fandrea%2Fworkspace%2Fagenda%2Fnotes%2F20200221154655_on_lisp.org" xlink:title="On Lisp">
<polygon fill="#eeeeee" stroke="transparent" points="161.5,-108 100.5,-108 100.5,-72 161.5,-72 161.5,-108"/>
<polyline fill="none" stroke="#c9c9c9" points="100.5,-72 161.5,-72 "/>
<text text-anchor="middle" x="131" y="-86.3" font-family="Times,serif" font-size="14.00" fill="#111111">On Lisp</text>
</a>
</g>
</g>
<!-- /home/andrea/workspace/agenda/notes/20200221154553_lisp.org&#45;&gt;/home/andrea/workspace/agenda/notes/20200221154655_on_lisp.org -->
<g id="edge4" class="edge">
<title>/home/andrea/workspace/agenda/notes/20200221154553_lisp.org&#45;&gt;/home/andrea/workspace/agenda/notes/20200221154655_on_lisp.org</title>
<path fill="none" stroke="#333333" d="M52.44,-143.88C65.79,-134.89 82.32,-123.76 96.78,-114.03"/>
<polygon fill="#333333" stroke="#333333" points="99.12,-116.68 105.46,-108.19 95.21,-110.87 99.12,-116.68"/>
</g>
<!-- /home/andrea/workspace/agenda/notes/20200221154655_on_lisp.org&#45;&gt;/home/andrea/workspace/agenda/notes/20200221154308_paul_graham.org -->
<g id="edge1" class="edge">
<title>/home/andrea/workspace/agenda/notes/20200221154655_on_lisp.org&#45;&gt;/home/andrea/workspace/agenda/notes/20200221154308_paul_graham.org</title>
<path fill="none" stroke="#333333" d="M119.88,-71.7C114.64,-63.56 108.3,-53.69 102.52,-44.7"/>
<polygon fill="#333333" stroke="#333333" points="105.35,-42.62 97,-36.1 99.46,-46.41 105.35,-42.62"/>
</g>
<!-- /home/andrea/workspace/agenda/notes/20200221154743_functional_programming.org -->
<g id="node4" class="node">
<title>/home/andrea/workspace/agenda/notes/20200221154743_functional_programming.org</title>
<g id="a_node4"><a xlink:href="org-protocol://roam-file?file=%2Fhome%2Fandrea%2Fworkspace%2Fagenda%2Fnotes%2F20200221154743_functional_programming.org" xlink:title="functional programming">
<polygon fill="#eeeeee" stroke="transparent" points="222,-180 72,-180 72,-144 222,-144 222,-180"/>
<polyline fill="none" stroke="#c9c9c9" points="72,-144 222,-144 "/>
<text text-anchor="middle" x="147" y="-158.3" font-family="Times,serif" font-size="14.00" fill="#111111">functional programming</text>
</a>
</g>
</g>
<!-- /home/andrea/workspace/agenda/notes/20200221154743_functional_programming.org&#45;&gt;/home/andrea/workspace/agenda/notes/20200221154655_on_lisp.org -->
<g id="edge5" class="edge">
<title>/home/andrea/workspace/agenda/notes/20200221154743_functional_programming.org&#45;&gt;/home/andrea/workspace/agenda/notes/20200221154655_on_lisp.org</title>
<path fill="none" stroke="#333333" d="M143.04,-143.7C141.28,-135.98 139.16,-126.71 137.2,-118.11"/>
<polygon fill="#333333" stroke="#333333" points="140.55,-117.07 134.91,-108.1 133.73,-118.63 140.55,-117.07"/>
</g>
<!-- /home/andrea/workspace/agenda/notes/20200221154756_macros.org -->
<g id="node5" class="node">
<title>/home/andrea/workspace/agenda/notes/20200221154756_macros.org</title>
<g id="a_node5"><a xlink:href="org-protocol://roam-file?file=%2Fhome%2Fandrea%2Fworkspace%2Fagenda%2Fnotes%2F20200221154756_macros.org" xlink:title="macros">
<polygon fill="#eeeeee" stroke="transparent" points="296,-180 240,-180 240,-144 296,-144 296,-180"/>
<polyline fill="none" stroke="#c9c9c9" points="240,-144 296,-144 "/>
<text text-anchor="middle" x="268" y="-158.3" font-family="Times,serif" font-size="14.00" fill="#111111">macros</text>
</a>
</g>
</g>
<!-- /home/andrea/workspace/agenda/notes/20200221154756_macros.org&#45;&gt;/home/andrea/workspace/agenda/notes/20200221154655_on_lisp.org -->
<g id="edge3" class="edge">
<title>/home/andrea/workspace/agenda/notes/20200221154756_macros.org&#45;&gt;/home/andrea/workspace/agenda/notes/20200221154655_on_lisp.org</title>
<path fill="none" stroke="#333333" d="M239.95,-146.67C220.08,-136.52 193.15,-122.75 171.03,-111.45"/>
<polygon fill="#333333" stroke="#333333" points="172.38,-108.21 161.88,-106.78 169.19,-114.44 172.38,-108.21"/>
</g>
</g>
</svg>
